<svg width="300" height="106" fill="none" xmlns="http://www.w3.org/2000/svg">
  <defs>
    <filter id="a" x=".501" y=".501" width="298.998" height="105.118" filterUnits="userSpaceOnUse" color-interpolation-filters="sRGB">
      <feFlood flood-opacity="0" result="BackgroundImageFix"/>
      <feColorMatrix in="SourceAlpha" values="0 0 0 0 0 0 0 0 0 0 0 0 0 0 0 0 0 0 127 0" result="hardAlpha"/>
      <feOffset dy="2.12"/>
      <feComposite in2="hardAlpha" operator="out"/>
      <feColorMatrix values="0 0 0 0 0 0 0 0 0 0 0 0 0 0 0 0 0 0 1 0"/>
      <feBlend in2="BackgroundImageFix" result="effect1_dropShadow_1_1413"/>
      <feBlend in="SourceGraphic" in2="effect1_dropShadow_1_1413" result="shape"/>
    </filter>
  </defs>
  <g filter="url(#a)">
    <path d="M150 2c49.333 0 98.667 8.67 148 26.015L277.411 60.87l8.324 40.483C236.751 83.784 194.226 78.869 150 79.114 104.222 78.868 61.142 84.512 12.386 102l10.203-41.129L2 28.015C51.333 10.67 100.667 2 150 2Z" fill="#fff"/>
    <path d="M150 2c49.333 0 98.667 8.67 148 26.015L277.411 60.87l8.324 40.483C236.751 83.784 194.226 78.869 150 79.114 104.222 78.868 61.142 84.512 12.386 102l10.203-41.129L2 28.015C51.333 10.67 100.667 2 150 2Z" stroke="#000" stroke-width="2.998" stroke-linecap="round" stroke-linejoin="round"/>
  </g>
  <text x="150" y="52" text-anchor="middle" font-family="'Noto Sans TC', 'Microsoft JhengHei', 'PingFang TC', sans-serif" font-size="22" font-weight="700" fill="#372C77">什麼是 Todo 英語？</text>
</svg>
