<svg width="300" height="106" fill="none" xmlns="http://www.w3.org/2000/svg"><g filter="url(#a)"><path d="M150 2c49.333 0 98.667 8.67 148 26.015L277.411 60.87l8.324 40.483C236.751 83.784 194.226 78.869 150 79.114 104.222 78.868 61.142 84.512 12.386 102l10.203-41.129L2 28.015C51.333 10.67 100.667 2 150 2Z" fill="#fff"/><path d="M150 2c49.333 0 98.667 8.67 148 26.015L277.411 60.87l8.324 40.483C236.751 83.784 194.226 78.869 150 79.114 104.222 78.868 61.142 84.512 12.386 102l10.203-41.129L2 28.015C51.333 10.67 100.667 2 150 2Z" stroke="#000" stroke-width="2.998" stroke-linecap="round" stroke-linejoin="round"/></g><path d="M75.057 60.184c-.358.085-.7.027-1.028-.174a1.274 1.274 0 0 1-.591-.821L69.461 42.52a1.274 1.274 0 0 1 .156-1c.201-.328.481-.534.839-.62l.63-.15c.358-.085.701-.027 1.029.174.324.186.529.458.614.816l1.203 5.042c.034.14.107.205.22.195 3.919.018 7.954.248 12.106.688.372.043.675.21.908.5.25.285.355.622.316 1.01l-.035.477c-.043.372-.209.675-.499.908-.274.23-.595.331-.963.304-3.997-.412-7.687-.641-11.07-.69-.051-.004-.086.021-.106.075a.163.163 0 0 0-.019.128l1.916 8.03c.086.359.026.694-.18 1.006a1.314 1.314 0 0 1-.838.62l-.63.15ZM101.832 35.796a1.348 1.348 0 0 1 1.029-.257c.381.054.684.234.909.54.382.474.791 1.026 1.229 1.654.225.305.302.642.229 1.009a1.23 1.23 0 0 1-.546.862l-.219.155a1.348 1.348 0 0 1-1.029.257 1.413 1.413 0 0 1-.889-.566 90.348 90.348 0 0 1-.614-.828 23.013 23.013 0 0 0-.611-.803 1.305 1.305 0 0 1-.273-.978c.054-.38.235-.676.543-.886l.242-.159Zm5.941-1.31c.571.753 1 1.326 1.287 1.718.226.305.302.641.23 1.009a1.234 1.234 0 0 1-.546.862l-.283.214c-.308.21-.652.287-1.032.233a1.412 1.412 0 0 1-.89-.566l-1.283-1.696a1.237 1.237 0 0 1-.25-.98c.057-.366.238-.661.543-.887l.286-.19a1.349 1.349 0 0 1 1.029-.257c.381.055.684.234.909.54Zm-10.3 21.101c-.364.057-.701-.029-1.011-.256a1.274 1.274 0 0 1-.524-.866L93.31 37.532a1.274 1.274 0 0 1 .236-.984c.227-.31.523-.494.886-.55l.64-.1c.364-.056.701.03 1.012.256.308.212.49.5.547.863l.795 5.122c.022.143.09.213.203.212 3.905.333 7.909.885 12.012 1.657.368.072.656.262.866.57.225.304.303.649.233 1.032l-.072.473a1.322 1.322 0 0 1-.57.865c-.292.208-.62.283-.985.226-3.951-.73-7.611-1.255-10.98-1.574-.05-.009-.087.013-.11.066a.163.163 0 0 0-.03.126l1.267 8.158c.056.363-.03.693-.26.987-.227.31-.522.494-.886.55l-.64.1ZM129.177 36.836a1.313 1.313 0 0 1-.988-.333 1.354 1.354 0 0 1-.457-.927l-.026-.335c-.011-.144-.088-.21-.232-.199l-6.365.492c-.144.011-.21.088-.199.232l.026.335c.029.367-.082.696-.333.989-.234.29-.534.45-.901.478l-.335.026a1.315 1.315 0 0 1-.989-.332 1.359 1.359 0 0 1-.457-.928l-.026-.335c-.011-.144-.088-.21-.232-.199l-2.823.219a1.274 1.274 0 0 1-.963-.311 1.272 1.272 0 0 1-.455-.904 1.273 1.273 0 0 1 .311-.963c.235-.275.536-.426.903-.455l2.824-.218c.143-.01.21-.088.199-.232l-.021-.263a1.358 1.358 0 0 1 .309-.987c.25-.292.559-.452.926-.48l.335-.026c.367-.029.688.083.964.334.293.25.453.559.481.926l.021.263c.011.144.088.21.232.199l6.365-.492c.143-.011.209-.089.198-.232l-.02-.263a1.358 1.358 0 0 1 .309-.987c.25-.292.559-.453.926-.48l.335-.027c.366-.028.688.083.964.335.292.25.453.559.481.925l.02.264c.011.143.089.21.232.199l2.824-.219c.367-.028.688.075.963.31.275.236.426.538.455.904.028.367-.075.688-.311.963a1.275 1.275 0 0 1-.904.455l-2.823.219c-.144.01-.21.088-.199.232l.026.335c.028.366-.083.696-.333.988-.234.291-.535.45-.902.48l-.335.025Zm-13.788 10.02a1.246 1.246 0 0 1-.939-.312 1.287 1.287 0 0 1-.429-.882c-.028-.35.069-.655.29-.913.236-.275.529-.426.88-.453l.909-.07c.144-.011.21-.089.199-.232l-.317-4.092a1.316 1.316 0 0 1 .333-.989c.25-.292.559-.452.926-.48l5.408-.418c.143-.011.21-.08.2-.208l-.005-.072a1.349 1.349 0 0 1 .309-.987c.25-.292.559-.452.925-.48l.575-.045c.367-.028.688.083.964.335.293.25.453.558.481.925l.006.072c.01.128.086.186.23.175l5.408-.418c.367-.029.696.082.988.333.292.25.453.558.481.925l.316 4.092c.011.144.089.21.232.199l.91-.07a1.17 1.17 0 0 1 .915.314c.273.22.424.505.451.856.027.35-.077.664-.313.939a1.166 1.166 0 0 1-.855.45l-7.131.552c-.128.01-.147.068-.059.173 1.299 1.44 3.711 2.433 7.235 2.98.357.052.636.231.836.537.199.29.255.606.17.95l-.055.22c-.1.377-.309.674-.63.891a1.36 1.36 0 0 1-1.041.225c-1.807-.325-3.461-.855-4.962-1.59-1.501-.734-2.722-1.587-3.664-2.557-.103-.089-.191-.09-.265-.004-.828 1.123-1.95 2.173-3.367 3.149-1.418.96-3.027 1.735-4.827 2.323a1.507 1.507 0 0 1-1.871-.842l-.088-.21a1.124 1.124 0 0 1 .021-.965c.167-.334.423-.554.768-.66 3.4-1.066 5.63-2.426 6.689-4.08.057-.101.021-.147-.107-.137l-7.13.551Zm10.931-6.501.22 2.847c.011.144.089.21.232.199l3.566-.276c.143-.01.209-.088.198-.232l-.22-2.847c-.011-.144-.088-.21-.232-.199l-3.565.276c-.144.01-.21.088-.199.232Zm-7.25.56.22 2.848c.011.143.088.21.232.198l3.565-.275c.144-.011.21-.089.199-.232l-.22-2.848c-.011-.143-.089-.21-.232-.199l-3.566.276c-.143.011-.209.089-.198.232ZM151.439 39.22c.128.001.209-.07.242-.214l.323-1.462c.017-.047.001-.095-.047-.144-.031-.048-.071-.072-.119-.073l-.456-.003a1.19 1.19 0 0 1-.837-.343 1.195 1.195 0 0 1-.33-.842c.003-.32.117-.591.342-.814.242-.238.523-.356.843-.353l.936.007c.128.001.209-.062.242-.19l.249-1.174c.016-.048 0-.096-.047-.145-.032-.048-.072-.072-.12-.072l-1.8-.014a1.287 1.287 0 0 1-.909-.367 1.291 1.291 0 0 1-.353-.915c.003-.352.125-.647.367-.885.258-.254.563-.38.915-.377l9.552.073c.352.003.647.133.885.391.254.242.38.54.377.891a1.247 1.247 0 0 1-.391.91 1.208 1.208 0 0 1-.891.352l-4.296-.033c-.144-.001-.232.07-.265.214l-.249 1.174c-.033.128.022.192.166.194l3.504.027c.368.002.679.14.933.415.27.274.403.595.4.963l-.02 2.664c-.001.144.07.216.214.217l.12.001c.352.003.647.133.885.391.254.242.38.54.377.891a1.243 1.243 0 0 1-.391.91 1.208 1.208 0 0 1-.891.352l-10.343-.08a1.287 1.287 0 0 1-.909-.367 1.287 1.287 0 0 1-.353-.914c.002-.352.125-.647.366-.886.258-.254.563-.38.915-.377l.864.007Zm3.589-1.652-.299 1.462a.159.159 0 0 0 .023.144c.047.048.095.072.143.073l2.496.02c.128 0 .193-.071.194-.215l.011-1.464c.001-.144-.062-.217-.19-.218l-2.112-.016c-.144-.001-.233.07-.266.214Zm4.734 5.46c.368.003.687.142.957.416.27.274.403.595.401.963l-.047 6a1.314 1.314 0 0 1-.415.957c-.274.27-.595.403-.963.4l-.984-.007a.799.799 0 0 1-.55-.22.746.746 0 0 1-.212-.554c0-.08-.039-.12-.119-.121l-4.776-.037c-.08 0-.12.04-.121.12a.749.749 0 0 1-.22.55.748.748 0 0 1-.554.211l-.864-.007a1.314 1.314 0 0 1-.957-.415 1.312 1.312 0 0 1-.4-.963l.046-6c.003-.368.141-.687.415-.957.274-.27.596-.403.963-.4l8.4.065Zm-1.792 5.219.019-2.52c.001-.144-.07-.217-.214-.218l-4.584-.035c-.144-.001-.216.07-.217.214l-.02 2.52c-.001.128.071.193.215.194l4.583.035c.144.001.217-.062.218-.19Zm-16.133-15.005a1.178 1.178 0 0 1-.861-.367 1.22 1.22 0 0 1-.329-.866 1.14 1.14 0 0 1 .342-.838 1.18 1.18 0 0 1 .867-.353l5.592.043a1.1 1.1 0 0 1 .837.367c.238.225.356.506.354.842a1.18 1.18 0 0 1-.367.862 1.102 1.102 0 0 1-.843.353l-5.592-.043Zm6.136 1.055c.352.003.655.133.909.391s.38.563.377.915a1.243 1.243 0 0 1-.391.91c-.258.253-.563.379-.915.376l-6.696-.052a1.273 1.273 0 0 1-.933-.39 1.286 1.286 0 0 1-.352-.915c.002-.352.125-.655.367-.91.258-.254.571-.38.938-.376l6.696.051Zm-6.022 5.954a1.19 1.19 0 0 1-.837-.343 1.196 1.196 0 0 1-.33-.842c.003-.32.117-.591.343-.813.241-.239.522-.356.842-.354l5.424.042c.32.002.591.124.813.366.239.226.357.499.354.819-.002.32-.125.599-.366.837a1.113 1.113 0 0 1-.819.33l-5.424-.042Zm-.026 3.384a1.19 1.19 0 0 1-.837-.343 1.196 1.196 0 0 1-.33-.842c.003-.32.117-.591.342-.814.242-.222.523-.332.843-.329l5.424.042c.32.002.591.116.813.342.238.226.356.499.354.819-.003.32-.125.599-.367.837a1.11 1.11 0 0 1-.818.33l-5.424-.042Zm-1.422 7.021.035-4.608c.003-.368.142-.687.416-.957.274-.27.595-.403.963-.4l5.352.041c.368.003.687.142.957.416.269.274.403.595.4.963l-.029 3.72a1.31 1.31 0 0 1-.415.956c-.274.27-.595.404-.963.401l-3.768-.03c-.08 0-.12.032-.121.096a.745.745 0 0 1-.22.55.748.748 0 0 1-.554.212l-.696-.005a1.31 1.31 0 0 1-.956-.416 1.236 1.236 0 0 1-.401-.939Zm2.858-3.434-.011 1.416c-.001.144.071.217.215.218l2.232.017c.128 0 .192-.07.193-.215l.011-1.416c.001-.143-.062-.216-.19-.217l-2.232-.017c-.144-.001-.217.07-.218.214ZM174.077 52.014c-2.949-.25-5.131-.934-6.546-2.05-1.414-1.116-2.041-2.622-1.88-4.52.177-2.072 1.57-3.824 4.181-5.256.102-.072.15-.164.144-.277l.006-.072c-.387-2.618-.66-4.793-.818-6.525-.032-.372.068-.7.301-.986.25-.3.561-.466.933-.498l.606-.045c.372-.033.7.075.984.324.284.25.451.56.499.934.191 1.911.42 3.745.688 5.502.019.162.094.217.227.164 2.23-.726 4.899-1.334 8.008-1.824.373-.048.71.044 1.012.279.302.218.47.514.502.886l.03.219c.048.373-.045.71-.279 1.012a1.332 1.332 0 0 1-.912.525c-4.117.645-7.246 1.47-9.387 2.477-2.141 1.006-3.262 2.099-3.362 3.279-.177 2.072 1.593 3.267 5.307 3.582 2.12.18 4.261.218 6.422.113.37-.017.69.099.958.346.284.25.434.56.451.93l.009.17c.017.37-.107.697-.372.98-.25.3-.561.458-.932.474-2.049.115-4.309.067-6.78-.143ZM198.343 48.741c-1.642-.267-2.556.167-2.742 1.304-.206 1.263.512 2.029 2.155 2.297.773.126 1.362.044 1.766-.247.407-.307.677-.87.811-1.691l.078-.474c.02-.127-.026-.24-.14-.34a4.166 4.166 0 0 0-1.928-.849Zm-.882 6.3c-1.753-.285-3.045-.91-3.877-1.872-.834-.947-1.133-2.146-.896-3.6.224-1.373.874-2.378 1.95-3.013 1.092-.632 2.523-.804 4.291-.515.679.11 1.289.299 1.829.565.121.052.192.015.213-.11l.73-4.478c.023-.142-.036-.224-.178-.248l-5.235-.854a1.315 1.315 0 0 1-.882-.557 1.313 1.313 0 0 1-.248-1.013c.059-.363.244-.65.553-.858.312-.225.65-.307 1.013-.248l5.235.854c.142.023.225-.037.248-.179l.34-2.084c.059-.363.245-.657.557-.882.313-.225.65-.307 1.014-.248l.307.05c.364.06.658.245.882.557.225.313.308.65.248 1.014l-.34 2.084c-.023.142.029.223.155.244l2.321.379c.364.059.658.245.882.557.227.296.311.626.252.99a1.313 1.313 0 0 1-.557.881c-.312.225-.65.307-1.013.248l-2.321-.378c-.127-.02-.202.04-.225.182l-1.02 6.253c-.018.11.02.23.112.359.631.703 1.449 1.752 2.453 3.148.209.31.283.654.221 1.033a1.313 1.313 0 0 1-.557.882l-.111.079a1.354 1.354 0 0 1-1.009.224 1.315 1.315 0 0 1-.882-.557c-.209-.31-.505-.73-.888-1.263-.079-.11-.146-.097-.201.04-.893 1.994-2.681 2.773-5.366 2.335Zm-8.67-1.56a1.545 1.545 0 0 1-1.023-.434 1.331 1.331 0 0 1-.453-.95c-.149-2.763.022-5.653.514-8.67.492-3.016 1.248-5.81 2.268-8.384a1.33 1.33 0 0 1 .731-.756 1.546 1.546 0 0 1 1.108-.087l.281.07c.339.104.587.323.744.657.159.318.17.644.035.978-.96 2.405-1.679 5.076-2.159 8.013-.479 2.937-.645 5.699-.5 8.284.023.36-.092.666-.344.916a1.172 1.172 0 0 1-.914.386l-.288-.023ZM217.148 41.752l.011-.046c.011-.377.147-.697.41-.962.283-.276.612-.41.989-.399 1.719.045 3.48.29 5.282.735 2.019.498 3.496 1.258 4.431 2.28.938 1.005 1.258 2.114.959 3.326a4.57 4.57 0 0 1-.601 1.434c-.263.396-.617.729-1.062.998-.43.273-.802.478-1.116.615-.314.137-.767.305-1.36.505a15.4 15.4 0 0 0-1.221.44c-.291.11-.632.29-1.023.539a3.664 3.664 0 0 0-.917.812c-.6.758-1.233 1.055-1.901.89l-.466-.114a1.261 1.261 0 0 1-.834-.627c-.18-.34-.181-.67-.004-.99.294-.52.696-.981 1.207-1.382.511-.402.95-.68 1.319-.837.368-.156.897-.364 1.587-.622a17.964 17.964 0 0 0 1.314-.516c.294-.125.6-.33.917-.614.333-.28.546-.607.638-.98.295-1.196-.699-2.076-2.983-2.64a17.65 17.65 0 0 0-4.251-.504 1.373 1.373 0 0 1-.962-.41c-.249-.26-.37-.57-.363-.93Zm1.775 12.946.769.19c.357.088.635.297.834.626.199.33.254.672.166 1.03l-.149.606a1.314 1.314 0 0 1-.626.834 1.314 1.314 0 0 1-1.03.166l-.769-.19a1.314 1.314 0 0 1-.834-.626 1.314 1.314 0 0 1-.167-1.03l.15-.605c.088-.357.297-.636.626-.834a1.314 1.314 0 0 1 1.03-.167Z" fill="#372C77"/><defs><filter id="a" x=".501" y=".501" width="298.998" height="105.118" filterUnits="userSpaceOnUse" color-interpolation-filters="sRGB"><feFlood flood-opacity="0" result="BackgroundImageFix"/><feColorMatrix in="SourceAlpha" values="0 0 0 0 0 0 0 0 0 0 0 0 0 0 0 0 0 0 127 0" result="hardAlpha"/><feOffset dy="2.12"/><feComposite in2="hardAlpha" operator="out"/><feColorMatrix values="0 0 0 0 0 0 0 0 0 0 0 0 0 0 0 0 0 0 1 0"/><feBlend in2="BackgroundImageFix" result="effect1_dropShadow_1_1413"/><feBlend in="SourceGraphic" in2="effect1_dropShadow_1_1413" result="shape"/></filter></defs></svg>