<svg version="1.1" id="レイヤー_1" xmlns="http://www.w3.org/2000/svg" x="0" y="0" viewBox="0 0 148.9 182.8" style="enable-background:new 0 0 148.9 182.8" xml:space="preserve"><style>.st1{fill:none;stroke:#f7419c;stroke-width:2;stroke-linecap:round}</style><defs><filter id="Adobe_OpacityMaskFilter" filterUnits="userSpaceOnUse" x="-33.8" y="0" width="182.8" height="182.8"><feColorMatrix values="1 0 0 0 0 0 1 0 0 0 0 0 1 0 0 0 0 0 1 0"/></filter></defs><mask maskUnits="userSpaceOnUse" x="-33.8" y="0" width="182.8" height="182.8" id="mask0_1_1231_00000072278655577209888980000011352517230017851819_"><path style="fill:none;filter:url(#Adobe_OpacityMaskFilter);stroke:#f7419c;stroke-width:2;stroke-linecap:round" d="M-79.6 100.7 48.3 228.5"/><path class="st1" d="m-2.3 23.4 127.9 127.8M-73.3 94.4 54.6 222.2M4 17.1l127.9 127.8M-66.9 88 60.9 215.9M10.4 10.7l127.8 127.9M-60.2 81.3 67.7 209.1M17.1 4 145 131.8M-53.8 74.9 74 202.8M23.5-2.4l127.8 127.9M-47.5 68.6 80.4 196.4M29.8-8.7l127.9 127.8M-41.2 62.3 86.7 190.1M36.1-15 164 112.8M-34.8 55.9 93 183.8M42.5-21.4l127.8 127.9M-28.5 49.6 99.4 177.4M48.8-27.7l127.9 127.8M-21.7 42.8l127.8 127.9M55.6-34.5 183.4 93.4M-15.4 36.5l127.9 127.8M61.9-40.8 189.8 87M-9.1 30.1 118.8 158M68.2-47.2 196.1 80.7"/></mask><g style="mask:url(#mask0_1_1231_00000072278655577209888980000011352517230017851819_)"><circle cx="57.5" cy="91.4" r="91.4" style="fill:#f7419c;fill-opacity:.3"/></g></svg>