<svg version="1.1" id="レイヤー_1" xmlns="http://www.w3.org/2000/svg" x="0" y="0" viewBox="0 0 101.6 203.6" style="enable-background:new 0 0 101.6 203.6" xml:space="preserve"><style>.st1{fill:none;stroke:#f7419c;stroke-linecap:round}</style><defs><filter id="Adobe_OpacityMaskFilter" filterUnits="userSpaceOnUse" x="0" y="-25" width="243.2" height="243.2"><feColorMatrix values="1 0 0 0 0 0 1 0 0 0 0 0 1 0 0 0 0 0 1 0"/></filter></defs><mask maskUnits="userSpaceOnUse" x="0" y="-25" width="243.2" height="243.2" id="mask0_1_1259_00000078007678070086741090000012023020421918487206_"><path d="M104.6-81.2-52.8 76.2" style="fill:none;filter:url(#Adobe_OpacityMaskFilter);stroke:#f7419c;stroke-linecap:round"/><path class="st1" d="M198.6 12.9 41.3 170.2M112.3-73.4-45.1 83.9M206.3 20.6 49 178M120-65.7-37.3 91.6M214.1 28.3 56.7 185.7M128.2-57.5-29.1 99.8M222.3 36.6 65 193.9M135.9-49.8-21.4 107.5M230 44.3 72.7 201.6M143.6-42.1-13.7 115.2M237.7 52 80.4 209.3M151.3-34.4-6 122.9M245.4 59.7 88.1 217M159-26.7 1.7 130.7M253.1 67.4 95.8 224.7M166.8-18.9 9.4 138.4M175-10.7 17.7 146.6M182.7-3 25.4 154.3M190.4 4.7 33.1 162"/></mask><g style="mask:url(#mask0_1_1259_00000078007678070086741090000012023020421918487206_)"><path d="M132.9-20.3 238.5 85.3c6.2 6.2 6.2 16.4 0 22.6L132.9 213.5c-6.2 6.2-16.4 6.2-22.6 0L4.7 107.9c-6.2-6.2-6.2-16.4 0-22.6L110.3-20.3c6.2-6.3 16.4-6.3 22.6 0z" style="fill:#b8dfec;fill-opacity:.8"/></g></svg>