<?xml version="1.0" encoding="utf-8"?>
<!-- Generator: Adobe Illustrator 27.2.0, SVG Export Plug-In . SVG Version: 6.00 Build 0)  -->
<svg version="1.1" id="レイヤー_1" xmlns="http://www.w3.org/2000/svg" xmlns:xlink="http://www.w3.org/1999/xlink" x="0px"
	 y="0px" viewBox="0 0 301.2 103.2" style="enable-background:new 0 0 301.2 103.2;" xml:space="preserve">
<style type="text/css">
	.st0{fill:#FFFFFF;}
	.st1{fill:none;stroke:#000000;stroke-width:2.9981;stroke-linecap:round;stroke-linejoin:round;}
	.st2{fill:#372C77;}
</style>
<g>
	<path class="st0" d="M150.3,2c49.3,0,98.7,8.7,148,26l-20.6,32.9l8.3,40.5c-49-17.6-91.5-22.5-135.7-22.2
		c-45.8-0.2-88.9,5.4-137.6,22.9l10.2-41.1L2.3,28C51.6,10.7,101,2,150.3,2z"/>
	<path class="st1" d="M150.3,2c49.3,0,98.7,8.7,148,26l-20.6,32.9l8.3,40.5c-49-17.6-91.5-22.5-135.7-22.2
		c-45.8-0.2-88.9,5.4-137.6,22.9l10.2-41.1L2.3,28C51.6,10.7,101,2,150.3,2z"/>
</g>
<path class="st2" d="M73.9,59.7c-0.4,0.1-0.7,0-1-0.2c-0.3-0.2-0.5-0.5-0.6-0.8l0-0.2c-0.1-0.4,0-0.7,0.2-1c0.2-0.3,0.5-0.5,0.8-0.6
	L85.3,54c0.1,0,0.2-0.1,0.2-0.2L83,43.2c0-0.1-0.1-0.2-0.3-0.1L70.6,46c-0.4,0.1-0.7,0-1-0.2c-0.3-0.2-0.5-0.5-0.6-0.8l0-0.2
	c-0.1-0.4,0-0.7,0.2-1c0.2-0.3,0.5-0.5,0.8-0.6l14.2-3.4c0.4-0.1,0.7,0,1,0.2c0.3,0.2,0.5,0.5,0.6,0.8L89,54.7c0.1,0.4,0,0.7-0.2,1
	c-0.2,0.3-0.5,0.5-0.8,0.6L73.9,59.7z"/>
<path class="st2" d="M94.5,40.4c-0.4-0.1-0.6-0.3-0.8-0.7c-0.2-0.3-0.2-0.7-0.1-1l0.2-0.5c0.1-0.4,0.3-0.6,0.7-0.8
	c0.3-0.2,0.7-0.2,1.1-0.1c1.7,0.5,3.5,1.1,5.4,1.8c0.3,0.1,0.6,0.4,0.7,0.7c0.2,0.3,0.2,0.7,0.1,1l-0.2,0.5
	c-0.1,0.3-0.4,0.6-0.7,0.8c-0.3,0.2-0.7,0.2-1,0C97.8,41.4,96,40.8,94.5,40.4z M110.9,37c0.4,0,0.7,0.2,0.9,0.5
	c0.3,0.3,0.4,0.6,0.3,1c-0.3,4.2-1.6,7.7-4,10.4c-2.3,2.7-5.8,4.7-10.3,6c-0.4,0.1-0.7,0.1-1.1-0.1c-0.3-0.2-0.5-0.5-0.7-0.8
	L96,53.5c-0.1-0.4-0.1-0.7,0.1-1c0.2-0.3,0.4-0.6,0.8-0.7c3.8-1.1,6.7-2.8,8.6-5c1.9-2.2,3.1-5,3.5-8.6c0-0.4,0.2-0.7,0.5-0.9
	c0.3-0.3,0.6-0.4,1-0.3L110.9,37z"/>
<path class="st2" d="M119.3,33.7l12.3-1c0.4,0,0.7,0.1,1,0.3c0.3,0.2,0.4,0.5,0.5,0.9l0,0.2c0,0.4-0.1,0.7-0.3,1
	c-0.2,0.3-0.5,0.5-0.9,0.5l-12.3,1c-0.4,0-0.7-0.1-1-0.3c-0.3-0.3-0.4-0.6-0.5-0.9l0-0.2c0-0.4,0.1-0.7,0.3-1
	C118.6,33.9,118.9,33.7,119.3,33.7z M117.2,43.2c-0.4,0-0.7-0.1-1-0.3c-0.3-0.3-0.5-0.6-0.5-0.9l0-0.2c0-0.4,0.1-0.7,0.3-1
	c0.2-0.3,0.6-0.5,0.9-0.5l17.9-1.4c0.4,0,0.7,0.1,1,0.3c0.3,0.2,0.4,0.5,0.5,0.9l0,0.2c0,0.4-0.1,0.7-0.3,1
	c-0.2,0.3-0.6,0.5-0.9,0.5l-6.2,0.5c-0.1,0-0.2,0.1-0.2,0.2c0.2,2.5-0.3,4.5-1.3,6.1c-1,1.6-2.8,2.8-5.1,3.7c-0.4,0.1-0.7,0.1-1.1,0
	c-0.4-0.2-0.6-0.4-0.8-0.8l-0.1-0.3c-0.1-0.3-0.1-0.7,0-1c0.2-0.3,0.4-0.6,0.8-0.7c1.6-0.7,2.8-1.5,3.4-2.6c0.7-1,0.9-2.4,0.8-4.2
	c0-0.1-0.1-0.2-0.2-0.2L117.2,43.2z"/>
<path class="st2" d="M140.7,35.5c-0.3-0.2-0.6-0.4-0.7-0.8c-0.1-0.4-0.1-0.7,0.1-1l0.2-0.5c0.2-0.3,0.4-0.6,0.8-0.7
	c0.4-0.1,0.7-0.1,1.1,0.1c1.6,0.8,3.2,1.7,5,2.6c0.3,0.2,0.5,0.5,0.6,0.8c0.1,0.4,0.1,0.7-0.1,1l-0.3,0.5c-0.2,0.3-0.5,0.5-0.8,0.6
	c-0.4,0.1-0.7,0.1-1-0.1C143.8,37.1,142.1,36.2,140.7,35.5z M157.4,34.9c0.4,0.1,0.7,0.3,0.9,0.6c0.2,0.3,0.3,0.7,0.2,1
	c-1,4.1-2.8,7.3-5.6,9.6c-2.8,2.3-6.5,3.7-11.1,4.3c-0.4,0-0.7-0.1-1-0.3c-0.3-0.2-0.5-0.5-0.5-0.9l0-0.4c-0.1-0.4,0-0.7,0.2-1
	c0.2-0.3,0.5-0.5,0.9-0.5c3.9-0.5,7-1.7,9.3-3.5c2.3-1.8,3.9-4.5,4.8-7.9c0.1-0.4,0.3-0.7,0.6-0.9c0.3-0.2,0.7-0.3,1-0.2L157.4,34.9
	z"/>
<path class="st2" d="M181.2,34.4c0.4,0.1,0.7,0.2,0.9,0.5c0.2,0.3,0.3,0.6,0.3,1c-0.7,5.4-2.2,9.3-4.6,11.6c-2.4,2.4-6,3.7-10.9,4
	c-0.4,0-0.7-0.1-1-0.3c-0.3-0.2-0.4-0.6-0.5-1l0-0.3c0-0.4,0.1-0.7,0.3-1c0.2-0.3,0.5-0.4,0.9-0.5c2.1-0.2,3.9-0.5,5.3-1
	c1.4-0.5,2.6-1.3,3.6-2.3c1-1,1.8-2.3,2.4-3.9c0.6-1.6,1-3.5,1.3-5.9c0-0.4,0.2-0.7,0.5-0.9c0.3-0.2,0.6-0.3,1-0.3L181.2,34.4z
	 M164,41c-0.2-1.3-0.5-3.1-0.9-5.5c-0.1-0.4,0-0.7,0.2-1c0.2-0.3,0.5-0.5,0.9-0.5l0.4-0.1c0.4,0,0.7,0,1,0.3
	c0.3,0.2,0.5,0.5,0.6,0.9c0.2,1.3,0.6,3.1,1,5.5c0.1,0.4,0,0.7-0.2,1c-0.2,0.3-0.5,0.5-0.9,0.5l-0.5,0.1c-0.4,0-0.7,0-1-0.3
	C164.2,41.7,164,41.4,164,41z M172.1,42.1c-0.4,0-0.7,0-1-0.3c-0.3-0.2-0.5-0.5-0.5-0.9c-0.3-1.8-0.6-3.7-1-5.7
	c-0.1-0.4,0-0.7,0.2-1c0.2-0.3,0.5-0.5,0.9-0.5l0.5-0.1c0.4,0,0.7,0,1,0.3c0.3,0.2,0.5,0.5,0.6,0.9c0.3,1.7,0.6,3.6,1,5.7
	c0.1,0.4,0,0.7-0.3,1c-0.2,0.3-0.5,0.5-0.9,0.5L172.1,42.1z"/>
<path class="st2" d="M208.2,36.8c0.4,0.1,0.7,0.2,0.9,0.6c0.2,0.3,0.3,0.7,0.2,1c-0.4,2.5-0.9,4.3-1.3,5.5c-0.4,1.1-0.8,1.8-1.2,2.1
	c-0.5,0.3-1.1,0.4-2,0.2c-0.6-0.1-1.4-0.2-2.4-0.5c-0.4-0.1-0.6-0.3-0.9-0.6c-0.2-0.3-0.3-0.6-0.2-1c0-0.3,0.2-0.6,0.5-0.8
	c0.3-0.2,0.6-0.3,1-0.2c0.8,0.2,1.3,0.3,1.4,0.3c0.3,0,0.5,0,0.7-0.2c0.2-0.2,0.4-0.5,0.6-1.2s0.4-1.6,0.6-2.8c0-0.1,0-0.2-0.2-0.2
	l-2-0.3c-0.1,0-0.2,0-0.2,0.2c-1.1,3.1-3,5.3-5.7,6.5c-0.4,0.2-0.7,0.1-1.1,0c-0.3-0.2-0.6-0.4-0.7-0.8l-0.1-0.1
	c-0.1-0.3-0.1-0.7,0-1c0.2-0.3,0.4-0.6,0.7-0.8c1.7-0.9,3-2.3,3.8-4.3c0.1-0.1,0-0.2-0.1-0.2l-2.7-0.4c-0.3-0.1-0.6-0.2-0.8-0.5
	c-0.2-0.3-0.3-0.6-0.2-1c0.1-0.4,0.2-0.7,0.5-0.9c0.3-0.2,0.6-0.3,1-0.2L208.2,36.8z M195.2,56c-0.4-0.1-0.7-0.2-0.9-0.6
	c-0.2-0.3-0.3-0.6-0.3-1l1.2-7.2c0.1-0.4,0.2-0.7,0.6-0.9c0.3-0.2,0.6-0.3,1-0.2l9.2,1.5c0.4,0.1,0.6,0.2,0.9,0.6
	c0.2,0.3,0.3,0.7,0.2,1l-1.2,7.2c-0.1,0.4-0.2,0.6-0.6,0.9c-0.3,0.2-0.6,0.3-1,0.3l-0.8-0.1c-0.3,0-0.5-0.2-0.6-0.4
	c-0.1-0.2-0.2-0.4-0.2-0.7c0-0.1,0-0.1-0.1-0.2l-5.5-0.9c-0.1,0-0.1,0-0.1,0.1c0,0.3-0.2,0.5-0.4,0.6c-0.2,0.2-0.4,0.2-0.7,0.2
	L195.2,56z M198,49.1l-0.6,3.5c0,0.1,0,0.2,0.2,0.2l5.4,0.9c0.1,0,0.2,0,0.2-0.2l0.6-3.5c0-0.1,0-0.2-0.2-0.2l-5.4-0.9
	C198.1,48.9,198,49,198,49.1z M188.4,42.8c0,0,0.1-0.1,0.2-0.2c0.1-0.1,0.2-0.2,0.2-0.2c0.1-0.1,0.1-0.2,0.1-0.3
	c-0.2-0.4-0.4-0.9-0.7-1.5c-0.3-0.7-0.5-1.1-0.6-1.3c-0.4-0.8-0.4-1.6,0.1-2.4l0.3-0.5c0.2-0.2,0.4-0.3,0.6-0.3
	c0.3,0,0.5,0.2,0.6,0.4c0,0,0.1,0.1,0.1,0.1c0.1,0,0.1,0,0.1-0.1c0.5-0.7,0.9-1.4,1.4-2.1c0.2-0.3,0.4-0.5,0.8-0.6
	c0.4-0.1,0.7-0.1,1,0.1c0.3,0.2,0.5,0.4,0.6,0.8c0.1,0.4,0,0.7-0.2,1c-0.8,1.2-1.6,2.3-2.4,3.4c-0.1,0.1-0.1,0.3-0.1,0.4
	c0,0.1,0.1,0.2,0.1,0.3c0.1,0.1,0.1,0.2,0.1,0.2c0,0,0.1,0.1,0.1,0.1c0,0,0.1,0,0.1-0.1c0.5-0.6,1.2-1.4,2.1-2.6
	c0.2-0.3,0.5-0.5,0.9-0.5c0.4-0.1,0.7,0,1,0.2c0.3,0.2,0.5,0.5,0.5,0.8c0.1,0.3,0,0.6-0.2,0.9c-0.8,1.1-1.4,1.8-1.7,2.2
	c0,0.1,0,0.1,0.1,0.1l0.1,0c0.4,0,0.7,0.1,1,0.3c0.3,0.2,0.5,0.5,0.5,0.9c0.1,1.2,0.2,2.4,0.3,3.7c0,0.3-0.1,0.5-0.3,0.8
	c-0.2,0.2-0.4,0.3-0.7,0.3l-0.4,0c-0.2,0-0.3-0.1-0.5-0.2c-0.1-0.1-0.2-0.3-0.2-0.5c0-0.1,0-0.1-0.1-0.1l-1.1-0.1
	c-0.1,0-0.2,0-0.2,0.2l-1.3,7.7c-0.1,0.4-0.2,0.6-0.6,0.9c-0.3,0.2-0.7,0.3-1,0.2l-0.3-0.1c-0.4-0.1-0.7-0.2-0.9-0.6
	c-0.2-0.3-0.3-0.6-0.2-1l1.2-7.5c0-0.1,0-0.2-0.2-0.2l-1.4-0.1c-0.4,0-0.7-0.2-0.9-0.5c-0.2-0.3-0.3-0.6-0.3-1l0,0
	c0-0.4,0.2-0.7,0.5-0.9c0.3-0.2,0.7-0.3,1-0.3l0.3,0C188.2,43,188.3,42.9,188.4,42.8z M191.5,43.1c0,0-0.1,0.1,0,0.1
	c0,0,0.1,0.1,0.1,0.1l1.4,0.2c0.1,0,0.2,0,0.2-0.2c-0.1-0.8-0.1-1.4-0.2-1.7c0,0,0-0.1-0.1-0.1c0,0-0.1,0-0.1,0
	C192.2,42.3,191.7,42.9,191.5,43.1z M186.3,53.1c-0.3,0.1-0.5,0.2-0.8,0.1c-0.3-0.1-0.5-0.3-0.6-0.5c-0.1-0.2-0.1-0.5,0-0.8
	c0.5-1.6,0.9-3.1,1.3-4.5c0.1-0.3,0.2-0.5,0.5-0.6c0.3-0.2,0.5-0.2,0.8-0.1c0.3,0.1,0.5,0.2,0.6,0.5c0.2,0.2,0.2,0.5,0.1,0.8
	c-0.4,1.5-0.8,3-1.3,4.6C186.7,52.8,186.5,53,186.3,53.1z M192.4,47.7c0.2-0.2,0.5-0.3,0.7-0.3s0.5,0.1,0.7,0.3
	c0.2,0.2,0.3,0.4,0.3,0.7c-0.1,1.4-0.2,2.8-0.3,4.2c0,0.3-0.2,0.5-0.4,0.7c-0.2,0.2-0.5,0.3-0.7,0.2c-0.3,0-0.5-0.1-0.7-0.4
	c-0.2-0.2-0.2-0.5-0.2-0.7c0.1-1.2,0.2-2.5,0.3-4.1C192.1,48.1,192.2,47.9,192.4,47.7z"/>
<path class="st2" d="M211.1,45l-0.1-0.2c-0.1-0.4,0-0.7,0.2-1c0.2-0.3,0.5-0.5,0.9-0.6c3-0.8,5.7-1.9,8.3-3.3
	c0.8-0.4,1.6-0.5,2.5-0.3l1.3,0.3c0.9,0.2,1.5,0.7,2.1,1.4c1.7,2.4,3.6,4.7,5.8,6.8c0.3,0.3,0.4,0.6,0.5,1c0,0.4-0.1,0.7-0.3,1
	l-0.1,0.1c-0.2,0.3-0.5,0.5-0.9,0.5c-0.4,0-0.7-0.1-1-0.3c-2.8-2.5-5.1-5.4-7.1-8.5c-0.1-0.1-0.2-0.1-0.3-0.1
	c-3.2,1.9-6.6,3.3-10.2,4.2c-0.4,0.1-0.7,0-1-0.1C211.3,45.7,211.1,45.4,211.1,45z M217.3,45.9l0.5,0.1c0.4,0.1,0.6,0.3,0.8,0.6
	c0.2,0.3,0.3,0.6,0.2,1l-0.1,0.6c-0.8,3.2-1.7,5.5-2.8,7c-1,1.4-2.6,2.5-4.6,3.2c-0.4,0.1-0.7,0.1-1.1-0.1c-0.3-0.2-0.6-0.4-0.7-0.8
	l-0.2-0.4c-0.1-0.3-0.1-0.7,0-1c0.2-0.3,0.4-0.5,0.8-0.7c1.5-0.5,2.6-1.3,3.4-2.4c0.8-1.1,1.5-3,2.1-5.6l0.1-0.6
	c0.1-0.4,0.3-0.6,0.6-0.8C216.6,45.8,216.9,45.8,217.3,45.9z M226.1,48l0.6,0.1c0.4,0.1,0.6,0.3,0.8,0.6c0.2,0.3,0.3,0.6,0.2,1
	l-2.7,11c-0.1,0.4-0.3,0.6-0.6,0.8c-0.3,0.2-0.6,0.3-1,0.2l-0.6-0.1c-0.4-0.1-0.6-0.3-0.8-0.6c-0.2-0.3-0.2-0.7-0.1-1l2.7-11
	c0.1-0.4,0.3-0.6,0.6-0.8C225.4,48,225.8,48,226.1,48z"/>
</svg>
