<svg width="127" height="125" fill="none" xmlns="http://www.w3.org/2000/svg"><g clip-path="url(#a)"><path d="m10.417 53.463 8.132.099-.746 20.232 8.376.099-.487-20.263 8.483.107.068-6.077-23.758-.274-.068 6.077ZM47.5 48.094c-7.782 0-13.21 5.635-13.21 13.714 0 3.686 1.172 7.036 3.296 9.435 2.3 2.597 5.582 3.967 9.48 3.967 3.9 0 7.387-1.294 9.747-3.746 2.353-2.445 3.594-5.924 3.594-10.075 0-3.616-1.15-6.906-3.243-9.282-2.315-2.627-5.658-4.013-9.656-4.013H47.5Zm-.09 21.276c-4.014 0-6.504-2.947-6.504-7.691s2.536-7.744 6.458-7.744c3.921 0 6.411 3.084 6.411 7.683 0 4.6-2.437 7.76-6.358 7.76l-.008-.008ZM113.109 52.107c-2.315-2.627-5.658-4.013-9.656-4.013-7.782 0-13.211 5.635-13.211 13.714 0 3.686 1.172 7.036 3.297 9.435 2.3 2.597 5.581 3.967 9.48 3.967s7.386-1.294 9.747-3.746c2.353-2.445 3.594-5.924 3.594-10.075 0-3.616-1.15-6.906-3.244-9.282h-.007Zm-9.96 17.263c-4.013 0-6.503-2.947-6.503-7.691s2.535-7.744 6.457-7.744c3.921 0 6.411 3.084 6.411 7.683 0 4.6-2.436 7.76-6.358 7.76l-.007-.008ZM82.741 50.143c-2.62-1.782-5.795-2.536-10.607-2.536l-8.255.114.023 25.883 6.914.03c5.308 0 9.382-1.058 12.1-3.145 2.064-1.591 4.523-4.706 4.523-10.523 0-4.394-1.576-7.699-4.69-9.823h-.008Zm-4.196 15.815c-1.24 1.226-3.068 1.858-5.284 1.828-1.866 0-2.536-.03-2.772-.053V53.516c.51-.076 2.437-.145 3.373-.145 4.234 0 6.663 2.49 6.663 6.83 0 2.521-.67 4.455-1.987 5.757h.007ZM5.863 95.686V92.07h9.054l-.023-4.553-9.03-.168v-3.137h8.832l.061-4.653-14.049-.076L0 100.46h15.74l-.077-4.705-9.8-.069ZM32.712 80.038l-.19 12.343-6.396-12.343h-6.244l-.587 21.024h5.788l-.602-14.209c1.173 2.878 2.642 5.75 3.434 7.234l3.602 6.975h6.13l-.053-21.024h-4.882ZM51.696 88.551v4.546h3.282v3.389c-.343.083-1.37.144-2.125.144-3.175 0-6.38-2.063-6.38-6.015 0-4.364 3.624-5.917 6.73-5.917 2.308 0 3.625.457 5.019.937l.274.091v-4.972l-.069-.03c-1.408-.541-3.206-.838-5.185-.846h-.069c-6.13 0-12.313 3.396-12.343 11.01-.015 3.062 1.058 5.757 3.03 7.593 2.018 1.911 4.942 2.84 8.932 2.84 2.574 0 5.521-.594 7.303-1.188l.076-.023-.548-11.567h-7.935l.008.008ZM69.674 96.387 69.53 80.25h-5.27l-.441 21.024h13.973l-.19-4.904-7.928.016ZM81.591 80.076l-.41 20.621h5.862l-.563-20.636-4.889.015ZM100.102 88.43c-2.634-.9-3.792-1.394-3.822-2.377a1.2 1.2 0 0 1 .32-.898c.403-.419 1.172-.632 2.292-.64 1.584 0 2.947.328 4.431.724l.107.03 1.203-4.416-.472-.137c-1.614-.457-3.008-.853-5.36-.8-2.955.069-5.377.967-6.816 2.52-1.035 1.12-1.538 2.544-1.447 4.112.13 2.353 2.178 4.227 6.465 5.902 2.231.868 3.031 1.523 3.054 2.49.015.487-.252.944-.746 1.287-.541.38-1.303.586-2.194.609-2.056.053-3.647-.312-5.398-.868l-.114-.038-1.051 4.538.076.038c1.165.556 3.465 1.127 5.901 1.127h.373c2.894-.068 5.247-.822 6.808-2.17 1.424-1.234 2.147-2.894 2.101-4.813-.076-2.977-1.888-4.957-5.718-6.236l.007.015ZM125.551 79.779l-.008-.099h-5.086v7.69h-6.397l.145-7.667-5.307-.03-.952 21.024h5.597l.304-8.278 6.686.03.251 8.248h5.544l-.777-20.918ZM83.647 36.627H42.901a.478.478 0 0 0-.48.48v2.862c0 .13.054.252.145.335a.46.46 0 0 0 .335.138l40.746-.305a.476.476 0 0 0 .472-.48V37.1a.478.478 0 0 0-.48-.48l.008.008Z" fill="#372C77"/><path d="M50.128 19.646a.838.838 0 0 0-.625-.259h-5.277a.845.845 0 0 0-.617.259.73.73 0 0 0-.205.525l.411 13.752c.015.404.38.716.815.716h4.142c.434 0 .792-.312.815-.708l.723-13.744a.671.671 0 0 0-.198-.534l.016-.007Z" fill="#1F96DB"/><path d="M60.727 20.133c0-.464-.419-.845-.929-.845h-4.416c-.495 0-.907.358-.93.815l-.624 13.744a.79.79 0 0 0 .229.594c.175.183.434.29.7.29h5.254c.51 0 .93-.381.93-.853l-.214-13.752v.007Z" fill="#9857DB"/><path d="M72.156 19.638a.851.851 0 0 0-.609-.251h-5.284a.834.834 0 0 0-.602.251.712.712 0 0 0-.205.518l.304 13.745c.008.403.373.73.815.73h4.356c.441 0 .791-.312.814-.715l.617-13.745a.699.699 0 0 0-.206-.525v-.008Z" fill="#E6801B"/><path d="M82.688 20.103c-.015-.404-.373-.716-.8-.716h-4.096c-.434 0-.785.312-.8.716l-.61 13.744c-.007.198.062.381.206.533a.83.83 0 0 0 .594.252h5.308c.228 0 .45-.092.594-.252a.735.735 0 0 0 .205-.533l-.609-13.744h.008Z" fill="#D63679"/><path d="M83.662 13.546H68.014a.268.268 0 0 1-.16-.053c-.022-.023-.053-.038-.076-.053l-3.563-2.612a1.631 1.631 0 0 0-.922-.29c-.327 0-.655.1-.921.29l-3.564 2.612-.06.046a.26.26 0 0 1-.168.053l-15.656-.1c-.069 0-.13.031-.183.085-.175.175-.282.586-.282.754v2.413c0 .252.206.457.457.457h16.692l.076-.015c.335.008.678-.091.96-.297l2.33-1.751s.137-.115.312-.115c.167 0 .312.115.312.122l2.33 1.752c.29.205.64.304.982.289v.015h16.752a.458.458 0 0 0 .457-.457v-2.307c0-.206-.16-.838-.457-.838Z" fill="#372C77"/><path d="M75.141 4.988a.247.247 0 0 0-.137-.077l-5.589-1.766v-1.53a.543.543 0 0 0-.54-.541l-4.668-.038V.579c0-.16-.061-.434-.488-.526-.464-.122-.936 0-.944 0-.426.084-.495.366-.495.526v12.526c0 .29.236.525.526.525h.86c.29 0 .526-.236.526-.525V6.67l3.7.145v.442a.527.527 0 0 0 .236.48.584.584 0 0 0 .541.068l6.358-2.338a.304.304 0 0 0 .183-.213.284.284 0 0 0-.076-.266h.007ZM37.312 112.324c0-.563-.046-1.363-.16-1.926h2.498c-.061.563-.145 1.264-.145 1.926v2.376c2.147.624 5.223 1.767 6.7 2.482l-.913 2.209c-1.652-.869-4.059-1.798-5.787-2.391v4.538c0 .464.084 1.584.145 2.246h-2.498c.099-.639.16-1.599.16-2.246v-9.214ZM49.031 112.56c0-.579-.046-1.363-.16-1.942h2.498c-.061.564-.145 1.264-.145 1.942v2.338c2.132.64 5.224 1.782 6.7 2.497l-.898 2.232c-1.667-.884-4.073-1.813-5.802-2.391v4.538c0 .449.084 1.569.16 2.231H48.87c.1-.624.16-1.599.16-2.231v-9.214Zm7.85 1.013-1.393.624c-.464-1.012-.815-1.652-1.408-2.482l1.347-.564c.45.671 1.09 1.699 1.462 2.422h-.007Zm2.148-.929-1.348.655c-.51-1.013-.898-1.599-1.492-2.406l1.332-.625c.465.64 1.135 1.653 1.508 2.376ZM69.484 120.144c1.203 1.462 3.19 2.308 5.993 2.597-.42.434-.945 1.234-1.188 1.767-2.985-.48-4.95-1.584-6.298-3.511-.944 1.493-2.855 2.726-6.472 3.511-.206-.419-.754-1.188-1.188-1.622 3.427-.625 5.11-1.599 5.863-2.742h-5.513v-1.781h1.538v-3.671h4.6v-1.599h2.002v1.599h4.805v3.671h1.424v1.781H69.47h.015Zm-5.52-7.698H60.84v-1.713h3.122v-1.219h1.889v1.219h3.96v-1.219h1.903v1.219h3.16v1.713h-3.16v1.424h-1.904v-1.424h-3.96v1.424h-1.888v-1.424Zm2.824 5.917c.03-.191.03-.389.03-.579v-1.439h-2.756v2.018h2.726Zm2.033-2.018v1.477c0 .175 0 .365-.015.548h2.886v-2.018h-2.87v-.007ZM82.688 113.718H76.74v-1.508h5.947v1.508Zm-.465 10.112h-3.175v.624h-1.6v-5.467h4.775v4.843Zm-.114-7.904h-4.614v-1.424h4.614v1.424Zm-4.614.799h4.614v1.44h-4.614v-1.44Zm4.614-5.284h-4.523v-1.439h4.523v1.439Zm-3.061 9.054v1.827h1.538v-1.827h-1.538Zm12.716-4.539v1.668h-9.168v-1.668h1.973c.099-.495.19-1.058.289-1.637h-1.409v-1.622h1.668c.046-.388.114-.754.16-1.119H83.19v-1.637h8.034v1.637h-4.09l-.16 1.119h3.427v3.252h1.364v.007Zm-8.018 2.521h7.021v5.932h-1.873v-.564h-3.35v.625h-1.798v-5.993Zm1.797 1.698v1.987h3.35v-1.987h-3.35Zm1.15-5.848c-.099.579-.19 1.134-.29 1.637h2.163v-1.637h-1.873Z" fill="#372C77"/></g><defs><clipPath id="a"><path fill="#fff" d="M0 0h126.328v124.5H0z"/></clipPath></defs></svg>