<svg width="167" height="49" fill="none" xmlns="http://www.w3.org/2000/svg"><g clip-path="url(#a)"><path d="M26.819 36.331v7.05c-.054-.453-.639-1.88-5.899-1.88-6.26 0-5.898-2.018-5.898-2.018 0-1.053 1.745-1.358 2.714-1.537a330.15 330.15 0 0 1 9.083-1.615Z" fill="#BD6DB9"/><path d="M15.022 11.705C9.804 12.04 3.984 13.709.519 14.977c-.457.168-.658.775-.41 1.24l6.68 12.417c.233.431.282.957.133 1.433L1.677 46.952c-.198.636.31 1.261.885 1.095 9.65-2.794 24.255-1.8 24.255-4.53 0 0 .36-2.017-5.899-2.017-6.26 0-5.898-2.017-5.898-2.017V11.705h.002Z" fill="#955092"/><path d="M140.133 36.331v7.05c.054-.453.638-1.88 5.898-1.88 6.26 0 5.899-2.018 5.899-2.018 0-1.053-1.746-1.358-2.715-1.537a330.884 330.884 0 0 0-9.082-1.615Z" fill="#BD6DB9"/><path d="M151.931 11.705c5.218.335 11.038 2.004 14.503 3.272.457.168.658.775.409 1.24l-6.68 12.417a1.87 1.87 0 0 0-.132 1.433l5.245 16.885c.198.636-.31 1.261-.885 1.095-9.65-2.794-24.255-1.8-24.255-4.53 0 0-.361-2.017 5.899-2.017 6.259 0 5.898-2.017 5.898-2.017V11.705h-.002Z" fill="#955092"/><path d="M83.476 31.794c-22.883 0-44.96 2.152-65.74 6.15-.969.179-2.714.486-2.714 1.537V7.647c0-.827.528-1.532 1.25-1.663C37.892 2.038 60.464 0 83.476 0c23.011 0 45.583 2.038 67.203 5.984.722.13 1.251.838 1.251 1.663v31.836c0-1.053-1.746-1.358-2.715-1.537-20.781-3.998-42.856-6.15-65.74-6.15-22.882 0-44.96 2.152-65.738 6.15-.97.18-2.715.486-2.715 1.537V7.647c0-.827.528-1.532 1.25-1.663C37.892 2.038 60.464 0 83.476 0c23.011 0 45.583 2.038 67.203 5.984.722.13 1.251.838 1.251 1.663v31.836c0-1.053-1.746-1.358-2.715-1.537-20.781-3.998-42.856-6.15-65.74-6.15v-.002Z" fill="#BD6DBA"/><path d="M52.471 17.993c-1.44-.48-2.484-1.062-3.132-1.746-.636-.684-.954-1.512-.954-2.484 0-1.092.366-1.956 1.098-2.592.732-.636 1.758-.954 3.078-.954 1.116 0 2.088.126 2.916.378.288.084.516.258.684.522.18.252.27.534.27.846v.162a.613.613 0 0 1-.306.54.69.69 0 0 1-.63.054 7.577 7.577 0 0 0-2.754-.522c-.6 0-1.056.138-1.368.414-.312.276-.468.66-.468 1.152 0 .864.564 1.482 1.692 1.854 1.62.516 2.742 1.104 3.366 1.764.636.66.954 1.512.954 2.556 0 2.52-1.554 3.78-4.662 3.78-.972 0-1.854-.15-2.646-.45a1.357 1.357 0 0 1-.684-.558 1.701 1.701 0 0 1-.234-.882v-.216c0-.228.096-.39.288-.486a.615.615 0 0 1 .594-.018 5.523 5.523 0 0 0 2.502.594c1.524 0 2.286-.576 2.286-1.728 0-.468-.144-.852-.432-1.152-.288-.312-.774-.588-1.458-.828Zm7.065-5.508a1.016 1.016 0 0 1-1.026-1.008v-.054c0-.276.102-.516.306-.72a.985.985 0 0 1 .72-.306h7.668c.276 0 .516.102.72.306a.985.985 0 0 1 .306.72v.054a1.016 1.016 0 0 1-1.026 1.008h-2.412c-.096 0-.144.054-.144.162v9.864a.985.985 0 0 1-.306.72.985.985 0 0 1-.72.306h-.504a.985.985 0 0 1-.72-.306.985.985 0 0 1-.306-.72v-9.864c0-.108-.048-.162-.144-.162h-2.412Zm13.628.144L71.58 18.28a.119.119 0 0 0 .018.108c.024.036.054.054.09.054h2.988c.036 0 .066-.018.09-.054a.119.119 0 0 0 .018-.108L73.2 12.629c0-.012-.006-.018-.018-.018-.012 0-.018.006-.018.018Zm-4.662 10.908a.688.688 0 0 1-.594-.306.696.696 0 0 1-.09-.666l3.726-11.196a1.53 1.53 0 0 1 .522-.702c.252-.18.528-.27.828-.27h.648c.312 0 .588.09.828.27.252.18.426.414.522.702l3.726 11.196a.696.696 0 0 1-.09.666.688.688 0 0 1-.594.306h-.648c-.288 0-.558-.09-.81-.27a1.409 1.409 0 0 1-.486-.72l-.576-2.034c-.012-.096-.078-.144-.198-.144h-4.068c-.108 0-.174.048-.198.144l-.576 2.034a1.277 1.277 0 0 1-.486.72c-.24.18-.51.27-.81.27h-.576Zm17.029.18c-1.933 0-3.499-.6-4.699-1.8-1.188-1.212-1.781-2.862-1.781-4.95 0-2.112.593-3.762 1.781-4.95 1.189-1.2 2.833-1.8 4.933-1.8.864 0 1.65.06 2.358.18.287.048.527.192.72.432.191.228.287.492.287.792v.072a.735.735 0 0 1-.305.612.778.778 0 0 1-.684.144 9.764 9.764 0 0 0-2.107-.234c-1.452 0-2.556.402-3.312 1.206-.743.792-1.115 1.974-1.115 3.546 0 1.524.365 2.7 1.097 3.528.745.816 1.747 1.224 3.007 1.224.516 0 1.026-.072 1.53-.216.096-.024.144-.09.144-.198V17.74c0-.108-.049-.162-.145-.162h-2.25a.966.966 0 0 1-.683-.27.966.966 0 0 1-.27-.684c0-.276.09-.504.27-.684a.934.934 0 0 1 .683-.288h3.78c.276 0 .517.102.72.306a.985.985 0 0 1 .306.72v5.238c0 .312-.09.594-.27.846-.18.252-.413.42-.701.504-1.02.3-2.118.45-3.294.45Zm8.047-.18a.985.985 0 0 1-.72-.306.985.985 0 0 1-.306-.72V11.423c0-.276.102-.516.306-.72a.985.985 0 0 1 .72-.306h6.12c.276 0 .516.102.72.306a.985.985 0 0 1 .306.72 1.016 1.016 0 0 1-1.026 1.008h-4.464c-.108 0-.162.054-.162.162v2.898c0 .108.054.162.162.162h4.158c.276 0 .504.096.684.288.192.192.288.42.288.684a.934.934 0 0 1-.288.684.927.927 0 0 1-.684.27h-4.158c-.108 0-.162.054-.162.162v3.6c0 .108.054.162.162.162h4.464c.276 0 .516.102.72.306a.928.928 0 0 1 .306.702.985.985 0 0 1-.306.72.985.985 0 0 1-.72.306h-6.12Zm15.961-11.106a1.016 1.016 0 0 1-1.026-1.008c0-.276.102-.516.306-.72a.985.985 0 0 1 .72-.306h6.39c.276 0 .51.102.702.306a.985.985 0 0 1 .306.72c0 .684-.252 1.248-.756 1.692l-2.916 2.646c-.012.012-.018.024-.018.036 0 .012.006.018.018.018h.288c1.104 0 1.974.318 2.61.954.636.624.954 1.5.954 2.628 0 1.38-.42 2.448-1.26 3.204-.84.744-2.04 1.116-3.6 1.116-.924 0-1.818-.108-2.682-.324a1.2 1.2 0 0 1-.702-.486 1.421 1.421 0 0 1-.27-.846v-.198c0-.24.096-.426.288-.558a.734.734 0 0 1 .666-.108c.972.324 1.836.486 2.592.486.792 0 1.404-.192 1.836-.576.432-.384.648-.942.648-1.674 0-.672-.246-1.152-.738-1.44-.48-.3-1.332-.45-2.556-.45h-.198a.894.894 0 0 1-.882-.9c0-.6.216-1.098.648-1.494l2.934-2.664c.012-.012.018-.024.018-.036 0-.012-.006-.018-.018-.018h-4.302Z" fill="#fff"/></g><defs><clipPath id="a"><path fill="#fff" d="M0 0h166.951v48.074H0z"/></clipPath></defs></svg>